<svg width="32" height="32" viewBox="0 0 32 32" fill="none" xmlns="http://www.w3.org/2000/svg">
<path d="M13.5282 4.33057C13.7274 3.83818 14.0691 3.41651 14.5096 3.1196C14.95 2.82268 15.469 2.66406 16.0002 2.66406C16.5314 2.66406 17.0504 2.82268 17.4908 3.1196C17.9313 3.41651 18.273 3.83818 18.4722 4.33057C20.4439 4.87281 22.183 6.04731 23.4226 7.67368C24.6621 9.30005 25.3334 11.2884 25.3335 13.3332V19.5959L27.7762 23.2599C27.9102 23.4607 27.9871 23.6941 27.9988 23.9352C28.0105 24.1763 27.9566 24.4161 27.8427 24.6289C27.7288 24.8418 27.5593 25.0197 27.3522 25.1437C27.1451 25.2678 26.9083 25.3333 26.6669 25.3332H20.6202C20.4597 26.444 19.9043 27.4598 19.0558 28.1945C18.2073 28.9292 17.1225 29.3335 16.0002 29.3335C14.8779 29.3335 13.7931 28.9292 12.9446 28.1945C12.0961 27.4598 11.5407 26.444 11.3802 25.3332H5.33353C5.09214 25.3333 4.85527 25.2678 4.64819 25.1437C4.4411 25.0197 4.27158 24.8418 4.1577 24.6289C4.04382 24.4161 3.98986 24.1763 4.00157 23.9352C4.01328 23.6941 4.09023 23.4607 4.2242 23.2599L6.66687 19.5959V13.3332C6.66687 9.03456 9.57353 5.41323 13.5282 4.33057ZM14.1149 25.3332C14.2526 25.7234 14.5079 26.0613 14.8457 26.3003C15.1835 26.5393 15.5871 26.6676 16.0009 26.6676C16.4147 26.6676 16.8182 26.5393 17.156 26.3003C17.4938 26.0613 17.7492 25.7234 17.8869 25.3332H14.1135H14.1149ZM16.0002 6.66657C14.2321 6.66657 12.5364 7.36894 11.2862 8.61919C10.0359 9.86943 9.33353 11.5651 9.33353 13.3332V19.9999C9.33359 20.2633 9.25565 20.5208 9.10953 20.7399L7.82553 22.6666H24.1735L22.8895 20.7399C22.7439 20.5206 22.6664 20.2631 22.6669 19.9999V13.3332C22.6669 11.5651 21.9645 9.86943 20.7142 8.61919C19.464 7.36894 17.7683 6.66657 16.0002 6.66657Z" fill="#5A5364"/>
</svg>
