<svg width="16" height="17" viewBox="0 0 16 17" fill="none" xmlns="http://www.w3.org/2000/svg">
<path d="M8.0026 1.8335C4.3266 1.8335 1.33594 4.82416 1.33594 8.50016C1.33594 12.1762 4.3266 15.1668 8.0026 15.1668C11.6786 15.1668 14.6693 12.1762 14.6693 8.50016C14.6693 4.82416 11.6786 1.8335 8.0026 1.8335ZM8.0026 13.8335C5.06194 13.8335 2.66927 11.4408 2.66927 8.50016C2.66927 5.5595 5.06194 3.16683 8.0026 3.16683C10.9433 3.16683 13.3359 5.5595 13.3359 8.50016C13.3359 11.4408 10.9433 13.8335 8.0026 13.8335Z" fill="#FCFCFC"/>
<path d="M8.66927 5.1665H7.33594V8.77584L9.53127 10.9712L10.4739 10.0285L8.66927 8.22384V5.1665Z" fill="#FCFCFC"/>
</svg>
