<svg width="38" height="38" viewBox="0 0 38 38" fill="none" xmlns="http://www.w3.org/2000/svg">
<rect x="0.2" y="0.2" width="37.6" height="37.6" rx="7.8" fill="#F9FBFE" stroke="#CCC4D8" stroke-width="0.4"/>
<path d="M12 27V11C12 10.7348 12.1054 10.4804 12.2929 10.2929C12.4804 10.1054 12.7348 10 13 10H19.172C19.7024 10.0001 20.211 10.2109 20.586 10.586L25.414 15.414C25.7891 15.789 25.9999 16.2976 26 16.828V27C26 27.2652 25.8946 27.5196 25.7071 27.7071C25.5196 27.8946 25.2652 28 25 28H13C12.7348 28 12.4804 27.8946 12.2929 27.7071C12.1054 27.5196 12 27.2652 12 27Z" stroke="#CCC4D8" stroke-width="2" stroke-linejoin="round"/>
<path d="M19 10V16C19 16.2652 19.1054 16.5196 19.2929 16.7071C19.4804 16.8946 19.7348 17 20 17H26" stroke="#CCC4D8" stroke-width="2" stroke-linejoin="round"/>
</svg>
