<svg width="16" height="16" viewBox="0 0 16 16" fill="none" xmlns="http://www.w3.org/2000/svg">
<path d="M14.3307 4C14.3307 4.16329 14.2708 4.32089 14.1623 4.44291C14.0537 4.56494 13.9042 4.6429 13.7421 4.662L13.6641 4.66667H13.1007L12.2801 13.0133C12.2354 13.4662 12.0238 13.8863 11.6866 14.1919C11.3493 14.4975 10.9105 14.6667 10.4554 14.6667H5.5394C5.0843 14.6667 4.64544 14.4975 4.3082 14.1919C3.97095 13.8863 3.75941 13.4662 3.71473 13.0133L2.89406 4.66667H2.33073C2.15392 4.66667 1.98435 4.59643 1.85932 4.4714C1.7343 4.34638 1.66406 4.17681 1.66406 4C1.66406 3.82319 1.7343 3.65362 1.85932 3.5286C1.98435 3.40357 2.15392 3.33333 2.33073 3.33333H5.66406C5.66406 3.02692 5.72442 2.7235 5.84168 2.44041C5.95894 2.15731 6.13081 1.90009 6.34748 1.68342C6.56415 1.46675 6.82138 1.29488 7.10447 1.17761C7.38756 1.06035 7.69098 1 7.9974 1C8.30381 1 8.60723 1.06035 8.89032 1.17761C9.17342 1.29488 9.43064 1.46675 9.64731 1.68342C9.86398 1.90009 10.0359 2.15731 10.1531 2.44041C10.2704 2.7235 10.3307 3.02692 10.3307 3.33333H13.6641C13.8409 3.33333 14.0104 3.40357 14.1355 3.5286C14.2605 3.65362 14.3307 3.82319 14.3307 4ZM9.4974 6.16667C9.37657 6.16667 9.25983 6.21043 9.16878 6.28984C9.07772 6.36926 9.0185 6.47896 9.00206 6.59867L8.9974 6.66667V11.3333L9.00206 11.4013C9.01853 11.521 9.07777 11.6307 9.16882 11.7101C9.25988 11.7894 9.37659 11.8332 9.4974 11.8332C9.6182 11.8332 9.73492 11.7894 9.82597 11.7101C9.91703 11.6307 9.97626 11.521 9.99273 11.4013L9.9974 11.3333V6.66667L9.99273 6.59867C9.9763 6.47896 9.91708 6.36926 9.82602 6.28984C9.73496 6.21043 9.61822 6.16667 9.4974 6.16667ZM6.4974 6.16667C6.37657 6.16667 6.25983 6.21043 6.16878 6.28984C6.07772 6.36926 6.01849 6.47896 6.00206 6.59867L5.9974 6.66667V11.3333L6.00206 11.4013C6.01853 11.521 6.07776 11.6307 6.16882 11.7101C6.25988 11.7894 6.37659 11.8332 6.4974 11.8332C6.6182 11.8332 6.73492 11.7894 6.82597 11.7101C6.91703 11.6307 6.97626 11.521 6.99273 11.4013L6.9974 11.3333V6.66667L6.99273 6.59867C6.9763 6.47896 6.91708 6.36926 6.82602 6.28984C6.73496 6.21043 6.61822 6.16667 6.4974 6.16667ZM7.9974 2.33333C7.73218 2.33333 7.47783 2.43869 7.29029 2.62623C7.10275 2.81376 6.9974 3.06812 6.9974 3.33333H8.9974C8.9974 3.06812 8.89204 2.81376 8.7045 2.62623C8.51697 2.43869 8.26261 2.33333 7.9974 2.33333Z" fill="#5A5364"/>
</svg>
