<svg xmlns="http://www.w3.org/2000/svg" width="24" height="20" viewBox="0 0 24.24 20.16">
  
    <g> 
        <g id="Icon_feather-camera" data-name="Icon feather-camera" transform="translate(0.9 0.9)">
            <path id="Caminho_55" data-name="Caminho 55" d="M23.94,20.82a2.04,2.04,0,0,1-2.04,2.04H3.54A2.04,2.04,0,0,1,1.5,20.82V9.6A2.04,2.04,0,0,1,3.54,7.56H7.62L9.66,4.5h6.12l2.04,3.06H21.9A2.04,2.04,0,0,1,23.94,9.6Z" transform="translate(-1.5 -4.5)" fill="none"  strokeLinecap="round" strokeLinejoin="round" strokeWidth="1.8" stroke="#fff" />
            <path id="Caminho_56" data-name="Caminho 56" d="M20.16,17.58a4.08,4.08,0,1,1-4.08-4.08,4.08,4.08,0,0,1,4.08,4.08Z" transform="translate(-4.86 -7.38)" fill="none"  strokeLinecap="round" strokeLinejoin="round" strokeWidth="1.8" stroke="#fff" />
        </g>
    </g>
</svg>