<svg width="16" height="16" viewBox="0 0 16 16" fill="none" xmlns="http://www.w3.org/2000/svg">
<path d="M14.0669 5.91679L8.46693 11.5335C8.40026 11.6001 8.32804 11.6475 8.25026 11.6755C8.17248 11.7035 8.08915 11.7172 8.00026 11.7168C7.91137 11.7168 7.82804 11.703 7.75026 11.6755C7.67248 11.6479 7.60026 11.6006 7.53359 11.5335L1.91693 5.91679C1.76137 5.76123 1.68359 5.56679 1.68359 5.33345C1.68359 5.10012 1.76693 4.90012 1.93359 4.73345C2.10026 4.56679 2.2947 4.48345 2.51693 4.48345C2.73915 4.48345 2.93359 4.56679 3.10026 4.73345L8.00026 9.63345L12.9003 4.73345C13.0558 4.5779 13.2476 4.50012 13.4756 4.50012C13.7036 4.50012 13.9007 4.58345 14.0669 4.75012C14.2336 4.91679 14.3169 5.11123 14.3169 5.33345C14.3169 5.55568 14.2336 5.75012 14.0669 5.91679Z" fill="black"/>
</svg>
