<svg width="16" height="16" viewBox="0 0 16 16" fill="none" xmlns="http://www.w3.org/2000/svg">
<path d="M10.0025 11.7421H8.67931V7.42123C8.67931 7.34276 8.61502 7.27856 8.53645 7.27856H7.46502C7.38645 7.27856 7.32216 7.34276 7.32216 7.42123V11.7421H6.00252C5.88288 11.7421 5.81681 11.8795 5.89002 11.9722L7.89002 14.4991C7.90338 14.5162 7.92046 14.53 7.93995 14.5394C7.95944 14.5489 7.98084 14.5539 8.00252 14.5539C8.0242 14.5539 8.0456 14.5489 8.06509 14.5394C8.08458 14.53 8.10166 14.5162 8.11502 14.4991L10.115 11.9722C10.1882 11.8795 10.1222 11.7421 10.0025 11.7421Z" fill="#5A5364"/>
<path d="M13.3464 5.68607C12.5286 3.53185 10.4446 2 8.00357 2C5.5625 2 3.47857 3.53007 2.66071 5.68429C1.13036 6.08553 0 7.47828 0 9.13318C0 11.1037 1.59821 12.6998 3.56964 12.6998H4.28571C4.36429 12.6998 4.42857 12.6356 4.42857 12.5571V11.4871C4.42857 11.4087 4.36429 11.3445 4.28571 11.3445H3.56964C2.96786 11.3445 2.40179 11.1055 1.98036 10.6722C1.56071 10.2406 1.3375 9.65925 1.35714 9.05649C1.37321 8.58571 1.53393 8.14345 1.825 7.77074C2.12321 7.3909 2.54107 7.11449 3.00536 6.99144L3.68214 6.81489L3.93036 6.16221C4.08393 5.75562 4.29821 5.37578 4.56786 5.0316C4.83406 4.69047 5.14938 4.39059 5.50357 4.14174C6.2375 3.62636 7.10179 3.35352 8.00357 3.35352C8.90536 3.35352 9.76964 3.62636 10.5036 4.14174C10.8589 4.3914 11.1732 4.69099 11.4393 5.0316C11.7089 5.37578 11.9232 5.7574 12.0768 6.16221L12.3232 6.81311L12.9982 6.99144C13.9661 7.2518 14.6429 8.13096 14.6429 9.13318C14.6429 9.72345 14.4125 10.2798 13.9946 10.6971C13.7897 10.903 13.5459 11.0662 13.2774 11.1773C13.0089 11.2884 12.721 11.3452 12.4304 11.3445H11.7143C11.6357 11.3445 11.5714 11.4087 11.5714 11.4871V12.5571C11.5714 12.6356 11.6357 12.6998 11.7143 12.6998H12.4304C14.4018 12.6998 16 11.1037 16 9.13318C16 7.48006 14.8732 6.08909 13.3464 5.68607Z" fill="#5A5364"/>
</svg>
