<svg width="21" height="20" viewBox="0 0 21 20" fill="none" xmlns="http://www.w3.org/2000/svg">
<path d="M14.711 9.10607L8.237 5.86807C8.05398 5.77649 7.85058 5.73323 7.64614 5.74242C7.44169 5.75161 7.24299 5.81293 7.06892 5.92056C6.89485 6.02818 6.7512 6.17854 6.65163 6.35733C6.55205 6.53613 6.49985 6.73742 6.5 6.94207V13.0581C6.49985 13.2627 6.55205 13.464 6.65163 13.6428C6.7512 13.8216 6.89485 13.972 7.06892 14.0796C7.24299 14.1872 7.44169 14.2485 7.64614 14.2577C7.85058 14.2669 8.05398 14.2237 8.237 14.1321L14.711 10.8941C14.8769 10.8109 15.0164 10.6833 15.1138 10.5254C15.2113 10.3675 15.2629 10.1856 15.2629 10.0001C15.2629 9.81452 15.2113 9.63263 15.1138 9.47475C15.0164 9.31686 14.8769 9.18921 14.711 9.10607Z" stroke="#5A5364" stroke-width="1.4" stroke-linecap="round" stroke-linejoin="round"/>
<path d="M10.5 19C15.4706 19 19.5 14.9706 19.5 10C19.5 5.02944 15.4706 1 10.5 1C5.52944 1 1.5 5.02944 1.5 10C1.5 14.9706 5.52944 19 10.5 19Z" stroke="#5A5364" stroke-width="1.4"/>
</svg>
