<svg width="24" height="24" viewBox="0 0 24 24" fill="none" xmlns="http://www.w3.org/2000/svg">
<path d="M18.75 3.75H5.25C4.45435 3.75 3.69129 4.06607 3.12868 4.62868C2.56607 5.19129 2.25 5.95435 2.25 6.75V14.25C2.25 15.0456 2.56607 15.8087 3.12868 16.3713C3.69129 16.9339 4.45435 17.25 5.25 17.25H13.5L18 20.25V17.25H18.75C19.5456 17.25 20.3087 16.9339 20.8713 16.3713C21.4339 15.8087 21.75 15.0456 21.75 14.25V6.75C21.75 5.95435 21.4339 5.19129 20.8713 4.62868C20.3087 4.06607 19.5456 3.75 18.75 3.75Z" stroke="#5A5364" stroke-width="2" stroke-linecap="round" stroke-linejoin="round"/>
<path d="M8.63388 11.1339C8.8683 10.8995 9 10.5815 9 10.25C9 9.91848 8.8683 9.60054 8.63388 9.36612C8.39946 9.1317 8.08152 9 7.75 9C7.41848 9 7.10054 9.1317 6.86612 9.36612C6.6317 9.60054 6.5 9.91848 6.5 10.25C6.5 10.5815 6.6317 10.8995 6.86612 11.1339C7.10054 11.3683 7.41848 11.5 7.75 11.5C8.08152 11.5 8.39946 11.3683 8.63388 11.1339ZM13.1339 11.1339C13.3683 10.8995 13.5 10.5815 13.5 10.25C13.5 9.91848 13.3683 9.60054 13.1339 9.36612C12.8995 9.1317 12.5815 9 12.25 9C11.9185 9 11.6005 9.1317 11.3661 9.36612C11.1317 9.60054 11 9.91848 11 10.25C11 10.5815 11.1317 10.8995 11.3661 11.1339C11.6005 11.3683 11.9185 11.5 12.25 11.5C12.5815 11.5 12.8995 11.3683 13.1339 11.1339ZM17.6339 11.1339C17.8683 10.8995 18 10.5815 18 10.25C18 9.91848 17.8683 9.60054 17.6339 9.36612C17.3995 9.1317 17.0815 9 16.75 9C16.4185 9 16.1005 9.1317 15.8661 9.36612C15.6317 9.60054 15.5 9.91848 15.5 10.25C15.5 10.5815 15.6317 10.8995 15.8661 11.1339C16.1005 11.3683 16.4185 11.5 16.75 11.5C17.0815 11.5 17.3995 11.3683 17.6339 11.1339Z" stroke="#5A5364" stroke-linecap="round" stroke-linejoin="round"/>
</svg>
