<svg width="24" height="24" viewBox="0 0 24 24" fill="none" xmlns="http://www.w3.org/2000/svg">
<path fill-rule="evenodd" clip-rule="evenodd" d="M1.40234 12.0001C1.40234 9.18967 2.51879 6.49434 4.50607 4.50705C6.49336 2.51977 9.1887 1.40332 11.9991 1.40332C14.8096 1.40332 17.5049 2.51977 19.4922 4.50705C21.4795 6.49434 22.5959 9.18967 22.5959 12.0001C22.5959 14.8106 21.4795 17.5059 19.4922 19.4932C17.5049 21.4805 14.8096 22.5969 11.9991 22.5969C9.1887 22.5969 6.49336 21.4805 4.50607 19.4932C2.51879 17.5059 1.40234 14.8106 1.40234 12.0001ZM11.9991 2.92332C10.2398 2.92338 8.51841 3.43473 7.04436 4.39517C5.57031 5.3556 4.40715 6.72372 3.69637 8.33309C2.9856 9.94245 2.75786 11.7237 3.04085 13.4601C3.32384 15.1965 4.10536 16.8133 5.29034 18.1137C6.00974 16.9869 7.00157 16.0596 8.17416 15.4175C9.34675 14.7754 10.6623 14.4393 11.9991 14.4401C13.336 14.4391 14.6516 14.7752 15.8242 15.4173C16.9969 16.0594 17.9887 16.9868 18.7079 18.1137C19.8929 16.8133 20.6745 15.1965 20.9574 13.4601C21.2404 11.7237 21.0127 9.94245 20.3019 8.33309C19.5911 6.72372 18.428 5.3556 16.9539 4.39517C15.4799 3.43473 13.7585 2.92338 11.9991 2.92332ZM17.5703 19.1665C17.0042 18.1907 16.1914 17.3808 15.2136 16.8181C14.2358 16.2553 13.1273 15.9595 11.9991 15.9601C10.871 15.9595 9.76244 16.2553 8.78464 16.8181C7.80685 17.3808 6.99413 18.1907 6.42794 19.1665C8.01957 20.4076 9.98085 21.0801 11.9991 21.0769C14.0983 21.0769 16.0311 20.3633 17.5703 19.1665ZM8.23914 10.4081C8.23914 9.41091 8.63529 8.45454 9.34042 7.7494C10.0456 7.04426 11.0019 6.64812 11.9991 6.64812C12.9964 6.64812 13.9527 7.04426 14.6579 7.7494C15.363 8.45454 15.7591 9.41091 15.7591 10.4081C15.7591 11.4053 15.363 12.3617 14.6579 13.0668C13.9527 13.772 12.9964 14.1681 11.9991 14.1681C11.0019 14.1681 10.0456 13.772 9.34042 13.0668C8.63529 12.3617 8.23914 11.4053 8.23914 10.4081ZM11.9991 8.16812C11.705 8.16812 11.4137 8.22606 11.1419 8.33863C10.8702 8.4512 10.6232 8.6162 10.4152 8.8242C10.2072 9.0322 10.0422 9.27914 9.92965 9.55091C9.81708 9.82268 9.75914 10.114 9.75914 10.4081C9.75914 10.7023 9.81708 10.9936 9.92965 11.2653C10.0422 11.5371 10.2072 11.784 10.4152 11.992C10.6232 12.2 10.8702 12.365 11.1419 12.4776C11.4137 12.5902 11.705 12.6481 11.9991 12.6481C12.5932 12.6481 13.163 12.4121 13.5831 11.992C14.0031 11.572 14.2391 11.0022 14.2391 10.4081C14.2391 9.81404 14.0031 9.24428 13.5831 8.8242C13.163 8.40412 12.5932 8.16812 11.9991 8.16812Z" fill="#5A5364"/>
</svg>
